<mxfile host="Electron" modified="2024-09-02T06:07:21.267Z" agent="Mozilla/5.0 (Windows NT 10.0; Win64; x64) AppleWebKit/537.36 (KHTML, like Gecko) draw.io/23.1.5 Chrome/120.0.6099.109 Electron/28.1.0 Safari/537.36" etag="XT_vUgzLNpKk-DxdhXL9" version="23.1.5" type="device">
  <diagram id="C5RBs43oDa-KdzZeNtuy" name="Page-1">
    <mxGraphModel dx="5078" dy="1829" grid="1" gridSize="10" guides="1" tooltips="1" connect="1" arrows="1" fold="1" page="1" pageScale="1" pageWidth="827" pageHeight="1169" math="0" shadow="0">
      <root>
        <mxCell id="WIyWlLk6GJQsqaUBKTNV-0" />
        <mxCell id="WIyWlLk6GJQsqaUBKTNV-1" parent="WIyWlLk6GJQsqaUBKTNV-0" />
        <mxCell id="WIyWlLk6GJQsqaUBKTNV-2" value="" style="rounded=0;html=1;jettySize=auto;orthogonalLoop=1;fontSize=11;endArrow=block;endFill=0;endSize=8;strokeWidth=1;shadow=0;labelBackgroundColor=none;edgeStyle=orthogonalEdgeStyle;" parent="WIyWlLk6GJQsqaUBKTNV-1" source="WIyWlLk6GJQsqaUBKTNV-3" target="WIyWlLk6GJQsqaUBKTNV-6" edge="1">
          <mxGeometry relative="1" as="geometry" />
        </mxCell>
        <mxCell id="WIyWlLk6GJQsqaUBKTNV-3" value="Set enviroment in CircleCI" style="rounded=1;whiteSpace=wrap;html=1;fontSize=12;glass=0;strokeWidth=1;shadow=0;" parent="WIyWlLk6GJQsqaUBKTNV-1" vertex="1">
          <mxGeometry x="160" y="80" width="120" height="40" as="geometry" />
        </mxCell>
        <mxCell id="WIyWlLk6GJQsqaUBKTNV-4" value="Yes" style="rounded=0;html=1;jettySize=auto;orthogonalLoop=1;fontSize=11;endArrow=block;endFill=0;endSize=8;strokeWidth=1;shadow=0;labelBackgroundColor=none;edgeStyle=orthogonalEdgeStyle;" parent="WIyWlLk6GJQsqaUBKTNV-1" source="WIyWlLk6GJQsqaUBKTNV-6" target="WIyWlLk6GJQsqaUBKTNV-10" edge="1">
          <mxGeometry y="20" relative="1" as="geometry">
            <mxPoint as="offset" />
          </mxGeometry>
        </mxCell>
        <mxCell id="WIyWlLk6GJQsqaUBKTNV-6" value="Install NodeJS" style="rhombus;whiteSpace=wrap;html=1;shadow=0;fontFamily=Helvetica;fontSize=12;align=center;strokeWidth=1;spacing=6;spacingTop=-4;" parent="WIyWlLk6GJQsqaUBKTNV-1" vertex="1">
          <mxGeometry x="170" y="170" width="100" height="80" as="geometry" />
        </mxCell>
        <mxCell id="WIyWlLk6GJQsqaUBKTNV-8" value="Yes" style="rounded=0;html=1;jettySize=auto;orthogonalLoop=1;fontSize=11;endArrow=block;endFill=0;endSize=8;strokeWidth=1;shadow=0;labelBackgroundColor=none;edgeStyle=orthogonalEdgeStyle;" parent="WIyWlLk6GJQsqaUBKTNV-1" source="WIyWlLk6GJQsqaUBKTNV-10" edge="1">
          <mxGeometry x="0.3333" y="20" relative="1" as="geometry">
            <mxPoint as="offset" />
            <mxPoint x="220" y="430" as="targetPoint" />
          </mxGeometry>
        </mxCell>
        <mxCell id="WIyWlLk6GJQsqaUBKTNV-10" value="Install AWS CLI" style="rhombus;whiteSpace=wrap;html=1;shadow=0;fontFamily=Helvetica;fontSize=12;align=center;strokeWidth=1;spacing=6;spacingTop=-4;" parent="WIyWlLk6GJQsqaUBKTNV-1" vertex="1">
          <mxGeometry x="170" y="290" width="100" height="80" as="geometry" />
        </mxCell>
        <mxCell id="kE521kVCgS56fpdzkzg2-2" value="" style="edgeStyle=orthogonalEdgeStyle;rounded=0;orthogonalLoop=1;jettySize=auto;html=1;" edge="1" parent="WIyWlLk6GJQsqaUBKTNV-1" source="kE521kVCgS56fpdzkzg2-0" target="kE521kVCgS56fpdzkzg2-1">
          <mxGeometry relative="1" as="geometry" />
        </mxCell>
        <mxCell id="kE521kVCgS56fpdzkzg2-0" value="Install Frontend&lt;br&gt;Dependencies" style="rhombus;whiteSpace=wrap;html=1;" vertex="1" parent="WIyWlLk6GJQsqaUBKTNV-1">
          <mxGeometry x="165" y="430" width="110" height="80" as="geometry" />
        </mxCell>
        <mxCell id="kE521kVCgS56fpdzkzg2-4" value="" style="edgeStyle=orthogonalEdgeStyle;rounded=0;orthogonalLoop=1;jettySize=auto;html=1;" edge="1" parent="WIyWlLk6GJQsqaUBKTNV-1" source="kE521kVCgS56fpdzkzg2-1" target="kE521kVCgS56fpdzkzg2-3">
          <mxGeometry relative="1" as="geometry" />
        </mxCell>
        <mxCell id="kE521kVCgS56fpdzkzg2-1" value="Install API dependencies" style="rhombus;whiteSpace=wrap;html=1;" vertex="1" parent="WIyWlLk6GJQsqaUBKTNV-1">
          <mxGeometry x="165" y="600" width="110" height="80" as="geometry" />
        </mxCell>
        <mxCell id="kE521kVCgS56fpdzkzg2-6" value="" style="edgeStyle=orthogonalEdgeStyle;rounded=0;orthogonalLoop=1;jettySize=auto;html=1;" edge="1" parent="WIyWlLk6GJQsqaUBKTNV-1" source="kE521kVCgS56fpdzkzg2-3" target="kE521kVCgS56fpdzkzg2-5">
          <mxGeometry relative="1" as="geometry" />
        </mxCell>
        <mxCell id="kE521kVCgS56fpdzkzg2-3" value="Run Frontend Lint" style="rhombus;whiteSpace=wrap;html=1;" vertex="1" parent="WIyWlLk6GJQsqaUBKTNV-1">
          <mxGeometry x="165" y="760" width="110" height="80" as="geometry" />
        </mxCell>
        <mxCell id="kE521kVCgS56fpdzkzg2-8" value="" style="edgeStyle=orthogonalEdgeStyle;rounded=0;orthogonalLoop=1;jettySize=auto;html=1;" edge="1" parent="WIyWlLk6GJQsqaUBKTNV-1" source="kE521kVCgS56fpdzkzg2-5" target="kE521kVCgS56fpdzkzg2-7">
          <mxGeometry relative="1" as="geometry" />
        </mxCell>
        <mxCell id="kE521kVCgS56fpdzkzg2-5" value="Build Frontend" style="rhombus;whiteSpace=wrap;html=1;" vertex="1" parent="WIyWlLk6GJQsqaUBKTNV-1">
          <mxGeometry x="165" y="920" width="110" height="80" as="geometry" />
        </mxCell>
        <mxCell id="kE521kVCgS56fpdzkzg2-10" value="" style="edgeStyle=orthogonalEdgeStyle;rounded=0;orthogonalLoop=1;jettySize=auto;html=1;" edge="1" parent="WIyWlLk6GJQsqaUBKTNV-1" source="kE521kVCgS56fpdzkzg2-7" target="kE521kVCgS56fpdzkzg2-9">
          <mxGeometry relative="1" as="geometry" />
        </mxCell>
        <mxCell id="kE521kVCgS56fpdzkzg2-7" value="Build API" style="rhombus;whiteSpace=wrap;html=1;" vertex="1" parent="WIyWlLk6GJQsqaUBKTNV-1">
          <mxGeometry x="165" y="1080" width="110" height="80" as="geometry" />
        </mxCell>
        <mxCell id="kE521kVCgS56fpdzkzg2-12" value="" style="edgeStyle=orthogonalEdgeStyle;rounded=0;orthogonalLoop=1;jettySize=auto;html=1;" edge="1" parent="WIyWlLk6GJQsqaUBKTNV-1" source="kE521kVCgS56fpdzkzg2-9" target="kE521kVCgS56fpdzkzg2-11">
          <mxGeometry relative="1" as="geometry" />
        </mxCell>
        <mxCell id="kE521kVCgS56fpdzkzg2-9" value="Generate deploy&lt;br&gt;package" style="rhombus;whiteSpace=wrap;html=1;" vertex="1" parent="WIyWlLk6GJQsqaUBKTNV-1">
          <mxGeometry x="165" y="1240" width="110" height="80" as="geometry" />
        </mxCell>
        <mxCell id="kE521kVCgS56fpdzkzg2-14" value="" style="edgeStyle=orthogonalEdgeStyle;rounded=0;orthogonalLoop=1;jettySize=auto;html=1;" edge="1" parent="WIyWlLk6GJQsqaUBKTNV-1" source="kE521kVCgS56fpdzkzg2-11" target="kE521kVCgS56fpdzkzg2-13">
          <mxGeometry relative="1" as="geometry" />
        </mxCell>
        <mxCell id="kE521kVCgS56fpdzkzg2-11" value="eb setup" style="rhombus;whiteSpace=wrap;html=1;" vertex="1" parent="WIyWlLk6GJQsqaUBKTNV-1">
          <mxGeometry x="180" y="1400" width="80" height="80" as="geometry" />
        </mxCell>
        <mxCell id="kE521kVCgS56fpdzkzg2-16" value="" style="edgeStyle=orthogonalEdgeStyle;rounded=0;orthogonalLoop=1;jettySize=auto;html=1;" edge="1" parent="WIyWlLk6GJQsqaUBKTNV-1" source="kE521kVCgS56fpdzkzg2-13" target="kE521kVCgS56fpdzkzg2-15">
          <mxGeometry relative="1" as="geometry" />
        </mxCell>
        <mxCell id="kE521kVCgS56fpdzkzg2-20" style="edgeStyle=orthogonalEdgeStyle;rounded=0;orthogonalLoop=1;jettySize=auto;html=1;" edge="1" parent="WIyWlLk6GJQsqaUBKTNV-1" source="kE521kVCgS56fpdzkzg2-13" target="kE521kVCgS56fpdzkzg2-19">
          <mxGeometry relative="1" as="geometry" />
        </mxCell>
        <mxCell id="kE521kVCgS56fpdzkzg2-21" value="deploy" style="edgeLabel;html=1;align=center;verticalAlign=middle;resizable=0;points=[];" vertex="1" connectable="0" parent="kE521kVCgS56fpdzkzg2-20">
          <mxGeometry x="-0.2484" y="-2" relative="1" as="geometry">
            <mxPoint as="offset" />
          </mxGeometry>
        </mxCell>
        <mxCell id="kE521kVCgS56fpdzkzg2-13" value="Deploy Frontend&lt;br&gt;to AWS&amp;nbsp;&lt;br&gt;S3" style="rhombus;whiteSpace=wrap;html=1;" vertex="1" parent="WIyWlLk6GJQsqaUBKTNV-1">
          <mxGeometry x="130" y="1560" width="180" height="80" as="geometry" />
        </mxCell>
        <mxCell id="kE521kVCgS56fpdzkzg2-23" style="edgeStyle=orthogonalEdgeStyle;rounded=0;orthogonalLoop=1;jettySize=auto;html=1;" edge="1" parent="WIyWlLk6GJQsqaUBKTNV-1" source="kE521kVCgS56fpdzkzg2-15" target="kE521kVCgS56fpdzkzg2-22">
          <mxGeometry relative="1" as="geometry" />
        </mxCell>
        <mxCell id="kE521kVCgS56fpdzkzg2-15" value="Deploy API to&lt;br&gt;AWS EB" style="rhombus;whiteSpace=wrap;html=1;" vertex="1" parent="WIyWlLk6GJQsqaUBKTNV-1">
          <mxGeometry x="130" y="1720" width="180" height="80" as="geometry" />
        </mxCell>
        <mxCell id="kE521kVCgS56fpdzkzg2-18" value="AWS Cloud" style="swimlane;horizontal=0;whiteSpace=wrap;html=1;" vertex="1" parent="WIyWlLk6GJQsqaUBKTNV-1">
          <mxGeometry x="-180" y="1530" width="200" height="290" as="geometry" />
        </mxCell>
        <mxCell id="kE521kVCgS56fpdzkzg2-19" value="AWS S3 bucket" style="whiteSpace=wrap;html=1;aspect=fixed;" vertex="1" parent="kE521kVCgS56fpdzkzg2-18">
          <mxGeometry x="50" y="20" width="80" height="80" as="geometry" />
        </mxCell>
        <mxCell id="kE521kVCgS56fpdzkzg2-22" value="AWS&lt;br&gt;Elastic Beastalk" style="whiteSpace=wrap;html=1;aspect=fixed;" vertex="1" parent="kE521kVCgS56fpdzkzg2-18">
          <mxGeometry x="50" y="160" width="80" height="80" as="geometry" />
        </mxCell>
        <mxCell id="kE521kVCgS56fpdzkzg2-24" value="deploy" style="text;html=1;align=center;verticalAlign=middle;resizable=0;points=[];autosize=1;strokeColor=none;fillColor=none;" vertex="1" parent="WIyWlLk6GJQsqaUBKTNV-1">
          <mxGeometry x="40" y="1738" width="60" height="30" as="geometry" />
        </mxCell>
        <mxCell id="kE521kVCgS56fpdzkzg2-29" style="edgeStyle=orthogonalEdgeStyle;rounded=0;orthogonalLoop=1;jettySize=auto;html=1;" edge="1" parent="WIyWlLk6GJQsqaUBKTNV-1" source="kE521kVCgS56fpdzkzg2-26" target="kE521kVCgS56fpdzkzg2-30">
          <mxGeometry relative="1" as="geometry">
            <mxPoint x="560" y="270" as="targetPoint" />
          </mxGeometry>
        </mxCell>
        <mxCell id="kE521kVCgS56fpdzkzg2-26" value="Developer" style="shape=umlActor;verticalLabelPosition=bottom;verticalAlign=top;html=1;outlineConnect=0;" vertex="1" parent="WIyWlLk6GJQsqaUBKTNV-1">
          <mxGeometry x="690" y="240" width="30" height="60" as="geometry" />
        </mxCell>
        <mxCell id="kE521kVCgS56fpdzkzg2-35" style="edgeStyle=orthogonalEdgeStyle;rounded=0;orthogonalLoop=1;jettySize=auto;html=1;" edge="1" parent="WIyWlLk6GJQsqaUBKTNV-1" source="kE521kVCgS56fpdzkzg2-30">
          <mxGeometry relative="1" as="geometry">
            <mxPoint x="310" y="270" as="targetPoint" />
          </mxGeometry>
        </mxCell>
        <mxCell id="kE521kVCgS56fpdzkzg2-36" value="Triger" style="edgeLabel;html=1;align=center;verticalAlign=middle;resizable=0;points=[];" vertex="1" connectable="0" parent="kE521kVCgS56fpdzkzg2-35">
          <mxGeometry x="0.0485" y="-8" relative="1" as="geometry">
            <mxPoint as="offset" />
          </mxGeometry>
        </mxCell>
        <mxCell id="kE521kVCgS56fpdzkzg2-30" value="Github" style="ellipse;whiteSpace=wrap;html=1;aspect=fixed;" vertex="1" parent="WIyWlLk6GJQsqaUBKTNV-1">
          <mxGeometry x="450" y="230" width="80" height="80" as="geometry" />
        </mxCell>
        <mxCell id="kE521kVCgS56fpdzkzg2-31" value="push" style="text;html=1;align=center;verticalAlign=middle;resizable=0;points=[];autosize=1;strokeColor=none;fillColor=none;" vertex="1" parent="WIyWlLk6GJQsqaUBKTNV-1">
          <mxGeometry x="560" y="240" width="50" height="30" as="geometry" />
        </mxCell>
        <mxCell id="kE521kVCgS56fpdzkzg2-34" value="Pipeline" style="swimlane;horizontal=0;whiteSpace=wrap;html=1;" vertex="1" parent="WIyWlLk6GJQsqaUBKTNV-1">
          <mxGeometry x="110" y="40" width="200" height="1880" as="geometry" />
        </mxCell>
      </root>
    </mxGraphModel>
  </diagram>
</mxfile>
